<svg id="f88fa0ec-5c2d-41e2-8a59-9ef386a62dcf" data-name="Layer 1" xmlns="http://www.w3.org/2000/svg" viewBox="0 0 1737 1243"><title>Beautiful Soup 4 - Pot</title><rect width="1737" height="1243" fill="#c8e6c9"/><path d="M782.9,655.3c.8,1.5,52.7-30.4,52.7-30.4,1.2,2.1-72.8,52.6-72.7,52.9s97.7-59,98.8-57c0,0-103.3,64.3-102.2,66.2,0,.2,110.7-68,112.5-64.9.7,1.3-125.8,100.6-125.3,101.5,1.9,3.3,155.8-89.9,155.8-89.9S742.3,739.4,742.6,739.9s310.6-185.1,313.1-180.8c0,0-319,181.8-315,188.8s299.9-177.7,301.9-174.3L739.7,752c4.2,7.3,293.6-172.9,295.1-170.4S732.2,766.1,735.3,771.5c1.1,1.7,254.6-155.6,258.3-149.2,2.5,4.3-260.5,169.9-258.1,174.2L943.2,676.6c1.1,2-209.4,120.5-207.3,124.3s205.9-126,208.9-120.7c.8,1.3-202,141.1-198.8,146.6S952.2,706.9,952.6,707.6c1.9,3.3-197,125.5-194.6,129.7S950.3,721.1,952.5,725c0,0-150.7,112.8-150,113.9s139.4-83.6,140.8-81.3c.3.6-56.5,57.3-56.5,57.3s17.5-10.4,17.6-10.2" fill="none" stroke="#fbab68" stroke-linecap="round" stroke-linejoin="round" stroke-width="8"/><path d="M1077.1,446s119.3-69.8,119.7-69.2-124.1,74.2-123.4,75.4c2,3.4,125.7-72.6,125.7-72.6S1068.9,455,1071,458.5c.5,1,129.2-77.2,130.3-75.2,0,0-181.3,121.7-178.8,126,.7,1.2,181.6-108.9,183.4-105.8,0,0-233.5,156.5-232.6,158.1,0,0,197.3-119.5,199.7-115.4,0,0-263.1,166.2-259.5,172.5s194.1-113.1,194.6-112.3S908.8,626.8,909.4,627.9C911,630.6,1092,516.5,1094.6,521" fill="none" stroke="#fbab68" stroke-linecap="round" stroke-linejoin="round" stroke-width="8"/><path d="M1150.6,376s18.4-11,18.5-10.8-69.3,62.3-68.7,63.5,93.5-55.8,94.3-54.4" fill="none" stroke="#fbab68" stroke-linecap="round" stroke-linejoin="round" stroke-width="8"/><path d="M1195.3,376.8l-2.8,2.9c-2.8-2.8-2.2-7-5.6-8.7,3.3,6.6,3.9,14.2,2.7,21.3s-6.2,12.8-11.6,18.1c-8.8,8.5-10.4,6.9-19.2,15.5s-8.3,9.2-17.1,17.7-9.2,8.2-18,16.8-7.5,9.9-16.3,18.5-6.5,10.9-15.4,19.5-9,8.3-17.9,16.9-12,5.2-20.9,13.8-6.6,10.8-15.4,19.3-11.1,6.3-19.9,14.9-6.5,11-15.3,19.5S990.9,588.4,982,597s-7.8,9.6-16.6,18.1-8.6,8.9-17.5,17.4-7,10.4-15.9,19c-3.3,3.2-7.2,7.7-5.4,11.9,3.6,8,7.3,15.5,8.3,24s3.8,17.4,2.5,26-6.2,16.2-9.6,24.3-6.5,16-11.5,23.2-9.7,14.4-15.9,20.6-13.4,8-20.8,12.4-14,6.4-21.6,9.7-13.7,8-21.5,10.5-15.4,3.8-23.2,5.7-15.9,1.2-23.7,2.4-16.6,3.4-25.2,2.9a65.7,65.7,0,0,1-24.7-6.3c1.7,3.4,2.4,8.7,5,11.3,4.8,4.8,12.2,7.5,19.2,9.5s13.8-.3,20.9-.2,14.6,4.5,21.3,3.5,15.4-4.3,23.2-6.1,14.6-7,22.1-9.4,15.1-5.3,22.1-8.3a169.7,169.7,0,0,0,20.8-11.2c7.3-4.4,13.9-8.3,19-13.4s11.8-10,16.1-16,6.8-13.7,10-20.4,8.3-13.2,10.1-20.4-.1-15.2,0-22.7-.1-14.8-1.9-22.1-3.6-14.9-7.4-21.7c5.8-10.2,9.9-6.9,18.3-15.1s9.1-7.6,17.5-15.8,7.1-9.5,15.5-17.7,7.9-8.7,16.4-16.9,8.9-7.6,17.4-15.8,8.9-7.7,17.3-15.8,6.6-10.2,15-18.3,8.3-8.4,16.7-16.5,9.2-7.5,17.6-15.6l16.9-16.4c8.4-8.1,10.4-6.1,18.8-14.3s6.2-10.6,14.6-18.7,9.9-6.7,18.3-14.9,8.7-7.9,17.1-16.1,7.7-8.9,16.2-17.1c6.9-6.7,8.9-15.2,9-24.1S1202.1,383.6,1195.3,376.8Z" fill="#ea8e49"/><path d="M786.5,853.4c-7.8,0-16.5-2.7-24.4-6s-14.3-8.5-20.2-14.4c-8.5-8.5-10.1-19.4-11.7-30.9-2.1-13.8-.1-26.3,1.1-33.8s2.1-13.3,3.4-20.3-.1-14,1.9-20.7,2.7-13.7,4.6-20.3,7.6-12.1,10.5-18.2,7.2-11.6,11.1-17,8.1-11.4,12.7-16c8.6-8.6,16-17.4,25.5-23.3s19.7-15.4,30.5-18.4,24.4-1.8,35.8-1c5.8.4,10.9,6.5,16.8,8.2a126.2,126.2,0,0,1,18.5,6.4c15-8.7,12.9-14.4,24.8-26.9s6.6-17.7,18.5-30.2,15.1-9.5,27.1-22.1,10.7-13.7,22.6-26.2,10-14.4,21.9-26.9,15.4-9.3,27.3-21.9,12.3-12.2,24.2-24.7,8.8-15.6,20.7-28.2,14.6-10,26.6-22.5,12.4-12.1,24.4-24.6c7.9-8.3,17.7-12,29.1-12.2s23.1,1.3,31.2,9.4c.7.5-2.2,1.9-1.5,2.4,8,8.1,16,17.8,15.9,29.1s-9,20.7-17.2,28.6c-12.4,12-10.8,13.7-23.2,25.8s-16.6,7.7-29.1,19.8-8.8,15.8-21.3,27.8-10.2,14.4-22.7,26.4-16.6,7.8-29.1,19.8-10.3,14.2-22.8,26.3-12.1,12.4-24.6,24.4-14.5,9.9-26.9,22-9.6,15-22.1,27.1-16.6,8.6-25.2,23.6c5.1,10.8,6.9,21.4,7.7,33a103,103,0,0,1-3.6,34.7c-2.9,10.9-3.9,23.8-10.2,34.2s-15.3,18-23.9,26.6c-4.6,4.7-12.6,5.9-18.5,10.1a142.7,142.7,0,0,1-17.6,10.3c-6.1,2.9-12.3,5.7-18.8,8.4s-11.2,10.1-17.8,12a138.6,138.6,0,0,1-20.8,4c-7.1,1.1-14.7-2.1-21.1-1C801.8,846.8,794.8,853.4,786.5,853.4Zm74-219.6c-7,0-14.2-1.1-21.4-.3s-14,1.5-20.7,4.7-14.1,4.7-20,9.3-10.8,9.9-16,15.2a106.9,106.9,0,0,0-12.5,15.2c-3.5,5-4.3,12.2-7.2,18.4s-3.9,11.8-6,18.1-7.2,11.1-9,17.4-3.7,12.5-4.6,19-.7,12.7-1.8,19.1a113.7,113.7,0,0,0-.5,28c1.2,10.2,6.4,18,12.3,23.9s14.1,6.4,24.2,7.5,19,8.1,27.7,6.8c6.3-1.1,12.7-1.9,18.9-3.1s12.6-3.8,18.6-5.5,11.2-7.4,17.1-9.5,12.5-3.7,18-6.3,11.6-5.9,16.1-9.8,9.2-9.8,13.2-13.8c7.7-7.8,19.8-12,25-20.6s6.5-21.2,9.1-31-1.9-20.6-3-30.9-1.5-19.6-6.7-29c-1.7-3.1,3.7-6,6.2-8.4,12.7-12.3,11.8-13.2,24.5-25.5s11.2-13.7,23.8-26,13.3-11.6,25.9-23.9,11.2-13.8,23.9-26,14.6-10.2,27.3-22.5,9.8-15.2,22.4-27.4,15.1-9.9,27.7-22.1,14.6-10.3,27.3-22.5,9.5-15.5,22.2-27.8,17.2-7.6,29.8-19.8c5.2-5,2.1-15.5,2.2-22.7s-2.6-11.7-7.7-16.8-9.5-12.1-16.5-12.1c-.1,0-.2,3.3-.3,3.3-7.2.1-15.5.4-20.4,5.6-12.2,12.7-10.2,14.6-22.4,27.3s-11.7,13.2-23.8,25.9-9.7,15.2-21.8,27.9-15,10-27.2,22.8-14.9,10.1-27,22.8-10.9,14-23.1,26.7-13,12-25.1,24.7-7.6,17.1-19.8,29.8-11.7,13.1-23.9,25.9-16.6,8.5-28.8,21.2c-2.4,2.6-5.3,4.9-8.4,3.2-5.9-3.3-13.1-1.8-19.3-3.3S867.2,633.8,860.5,633.8Z"/><path d="M533.2,576.8c0,.1,12.9-7.8,13-7.6s-15,20-14.6,20.6,39.5-23.1,39.6-22.9-40.6,30.6-40.6,30.6,52.6-32,53.4-30.7l-54,38.8c1,1.8,67.7-39.1,67.7-39.1s-67.8,47-67.8,47,83.2-48,83.2-48-83.9,56.5-83.1,58c1.7,3,101.4-58.5,101.4-58.5s-102.3,65.2-101.3,67,116.5-67.6,116.7-67.4c2,3.5-117.5,70.9-116.6,72.5,1.8,3.1,123.9-71.8,124-71.6s-123.8,76.8-123.1,78.1,132.2-76.3,132.2-76.3-131.7,80.8-130,83.7S679,565.2,679.7,566.5,534,658.7,535.2,660.8l165.5-95.5c2.2,3.9-165.7,100.5-164.8,102,3,5.3,174.7-100.8,174.7-100.8s-177,99.3-174.3,104.1c0,0,178.8-105.9,180-103.9L538.1,682.2c.1.3,204.5-118.1,204.5-118.1,2.9,5.1-204.6,127.5-204.2,128.3,3,5,218.4-132.3,221.1-127.6,0,0-221.7,138.6-220.8,140.1L777.3,567.1c2.8,5-237.4,143.5-236.9,144.3,4.1,7,242-148.8,245.9-142L543.5,718.2c3.5,6.1,261.7-151.1,261.7-151.1S545.5,723,546.7,725.2c4.3,7.4,273.2-164.4,276.1-159.4,1.8,3.2-273.6,168.5-273.6,168.5S842.5,563.8,843,564.6,551,745.4,551,745.4,858.9,563,860.9,566.5c0,0-309.5,184.5-306.9,188.9,5.4,9.4,330.4-190.9,330.5-190.8,2.9,5.1-332.9,188.5-329.1,195.1,4.9,8.5,335.9-199.2,338.1-195.3S553.4,758,556.6,763.5c0,0,343.4-203.3,345.6-199.5,0,0-345.9,201.9-342.7,207.5,0,0,357.1-211.8,359.5-207.6L561,774.7c.4.8,361.3-216.7,364.8-210.6,4.8,8.2-363.9,211.8-362.4,214.5.4.6,368.6-219.2,371.3-214.4,6.3,10.8-369.4,214.2-365.5,221,.9,1.5,376.5-221.1,378.1-218.3.1.1-379.7,213.3-374.3,222.8,6.6,11.3,382.8-221,382.8-221s-385.7,215.7-380,225.7c3,5.2,391.7-226.1,391.7-226.1L577.4,798.8c2.4,4.1,395.9-241.4,401.5-231.8L579.1,806.6c.1.1,412.9-251.7,418.6-241.7,1,1.6-421,239.7-417.5,245.9l427.2-246.7c5,8.8-423,254.3-423,254.3S1018.6,564.9,1019.8,567c0,0-435.1,246.7-428.8,257.6S1029,560.7,1033.8,569c2.1,3.5-440,254.3-435.1,262.8,0,0,453.5-272.9,458.3-264.6,7.8,13.4-455.8,268.3-453.8,271.7,8.2,14.1,468.5-289,476.5-275.1,0,0-479.8,269.8-475.1,277.9,6.4,11.2,481.2-277.8,481.2-277.8,4.9,8.5-476.6,286.7-476.6,286.7,5.3,9.2,490.6-294.9,495.6-286.2,3.4,5.9-498.7,278.3-491,291.6,1.9,3.3,496.9-298.1,501.8-289.7,0,0-504,280.3-495.5,295,1.4,2.5,507.8-293.2,507.8-293.2,1.5,2.6-500.7,298.9-500.7,298.9s515.6-303.2,518-299c5.8,10-515.5,301.3-515.5,301.3,7.3,12.7,521.9-301.5,522-301.4S629.1,866.2,632.6,872.2c0,0,522.8-316.4,529.1-305.4,8.2,14.2-523.8,310.4-523.4,310.9,5.6,9.7,541.1-312.4,541.1-312.4,5.1,8.9-533.6,319.3-533.6,319.3s542-312.9,542-312.9c7.9,13.6-534.2,318.5-534.2,318.5,2.9,5.1,532.3-319.3,537.5-310.3,7.1,12.2-532.6,313.2-532.6,313.2,8,13.9,532-308.9,532.8-307.6S659,888.1,663.7,896.3c6.4,11.1,526.9-304.2,526.9-304.2,5.6,9.8-519.9,310.1-519,311.7,0,0,509.7-311.2,517-298.5S674.7,908.1,674.7,908.1c2.2,3.7,513.8-296.6,513.8-296.6S678.4,909.9,681.7,915.6c7.7,13.4,502-302.3,507.4-293,2.8,4.8-504.1,294.9-503.9,295.2,5.1,8.8,504.3-291.1,504.3-291.1,1.6,2.9-496.4,294.2-495.2,296.3,7.5,13,487.8-299.3,495.5-286,3.3,5.7-488.8,284.8-484.9,291.5,5.4,9.4,479.5-288.5,484.6-279.7.5.8-479.7,281.4-479.7,281.4,6.9,11.9,478.1-279.2,479.5-276.8,0,0-475.1,266-467.3,279.5.3.6,466.9-269.5,466.9-269.5,4,6.8-462.8,271.1-462.8,271.1s458.8-275,463.2-267.5c0,0-456.6,270.2-454.9,273.1.3.7,449.7-274.9,456.3-263.4S739.2,942.9,740.2,944.6s449.4-261.6,450.3-260c6.7,11.6-444.9,263-444.9,263,3.6,6.3,436.6-267.3,443.1-255.9,3.4,5.8-431.3,259-431.3,259,4.1,7.1,425.8-249.3,427.3-246.7,5.1,8.9-418.5,242.4-414.3,249.7s407.9-244.5,411.8-237.8c0,0-411.4,228.2-405,239.3,0,.1,399.2-241.1,403.8-233.1,2.1,3.7-388.5,235.9-388.5,235.9s380-230.1,384.6-222.1c2.9,5-381,216.2-377,223.1,6.4,11.1,371.1-222.9,374.8-216.4L806.3,959.5c4.3,7.5,360.8-222.2,366.8-211.7,2.7,4.6-358.7,208.8-356.3,212.9,0,0,347.7-212.7,352.8-203.7S821.1,959.5,822.7,962.3s342.7-201.2,344.1-198.7c5.8,9.9-337.2,199.2-336,201.4,4,6.9,327.5-198.6,331.6-191.5,1,1.9-315,190-313.7,192.2s300-181.7,303.7-175.3c.7,1.3-299,165.3-294,174,1.3,2.2,286-175.8,290.6-167.8.6,1.1-283.1,164.1-281.7,166.4s277.5-164.9,279.6-161.4S886.4,956.8,889.2,961.8c3.9,6.7,247.6-148.8,250.1-144.4L913.5,959s209.9-123,210.7-121.6S924.1,955.6,925.6,958.2c.4.7,181-104.5,181-104.5L934.3,956.9c.1.1,169.4-97.8,169.4-97.8,1.2,2.1-162.5,93.6-160.5,97.2s155.7-93.5,157.3-90.8c0,.1-151.2,89-150.4,90.4S1095,872.2,1095,872.2s-101.3,60.9-100.3,62.7,72-44,73.1-42.1-58.5,35.3-57.5,37.1,50.3-30.7,51-29.5" fill="none" stroke="#6d4c41" stroke-linecap="round" stroke-linejoin="round" stroke-width="8"/><path d="M861.9,971.6c-8.1,0-16,.5-24-.1s-16.5,2.8-24.5,1.7-15.5-5.2-23.3-6.9-16-2.7-23.7-4.9-15.3-4.9-22.9-7.7-14.9-6.1-22.2-9.4-14-8.1-21-11.9-14.4-7.2-21.2-11.6-11.6-11.3-18-16.1-13.9-8.2-20-13.5S627,882.7,621.3,877s-7.5-15-12.7-21.1-9.8-12.6-14.6-19-13.2-10.3-17.5-17.1-8.2-13.9-12.1-21-6.2-14.9-9.5-22.2-7.6-14.3-10.4-21.8-6.9-14.8-9.1-22.5-.6-16.5-2.3-24.3-4.7-15.5-5.8-23.4,1.3-16.2.7-24.3-1.8-15.8-1.8-23.9c0-13.5-3.5-13.5-3.5-27s1.5-13.5,1.5-27.1c0-6.5,3.5-11.9,7.8-16.1s9.7-4.5,16.1-4.5c12.1,0,12.1-1.3,24.2-1.3s12-3,24.1-3,12.1-1.5,24.1-1.5,12.1,3,24.2,3,12-2.7,24.1-2.7,12.1,4.4,24.1,4.4,12.1.5,24.1.5,12.1-1.3,24.2-1.3,12-3.8,24.1-3.8,12.1,4,24.1,4,12.1.3,24.2.3,12-4.4,24.1-4.4,12.1.7,24.1.7,12.1,4.9,24.2,4.9,12-4.3,24.1-4.3,12.1,4.2,24.1,4.2,12.1-2.1,24.2-2.1,12,.2,24.1.2,12.1.3,24.1.3,12.1-.2,24.2-.2,12-1.6,24.1-1.6,12.1-.2,24.1-.2,12.1,3.3,24.2,3.3h24.1c12.1,0,12.1-2.4,24.1-2.4s12.1-.8,24.2-.8c6.4,0,14,1.7,18.3,6s7,11.8,7,18.3c0,13.6-.2,13.6-.2,27.1s-3.2,13.5-3.2,27c0,8.1.7,16.1.1,24.1s-.8,16-2,23.9-3.7,15.7-5.3,23.5-2.7,15.9-4.9,23.6-3.2,15.9-6,23.4-7.1,14.5-10.4,21.8-8.5,13.7-12.4,20.7-6.4,14.8-10.7,21.6-9,13.3-13.8,19.7-7.8,14.5-13.1,20.5-12,11-17.7,16.7-11.7,11.1-17.8,16.4-13.7,8.6-20.1,13.4-12.4,10.2-19.2,14.6-15,5.9-22,9.7-11.7,12.7-19,16-14.9,6.6-22.4,9.4-15.6,4.4-23.3,6.6-16.7-.4-24.5,1.3-15.5,3.4-23.5,4.5-15.4,6.8-23.4,7.4S869.9,971.6,861.9,971.6ZM548.1,572.4c-4.3,0-9,5.6-9,9.9,0,13.6,4.2,13.6,4.2,27.1s-2.7,13.5-2.7,27c0,8.1,1.3,16,1.9,24s1.4,15.9,2.6,23.8,2.5,15.8,4.3,23.6,2.6,15.8,5,23.5,5.9,14.9,8.8,22.3,3.5,16.1,7,23.3,9.1,13.4,13.2,20.3,10.8,12,15.3,18.6,5.3,16,10.3,22.3,9.8,12.9,15.3,18.8,14.4,8.3,20.3,13.7,11.6,10.9,17.8,15.9,11.9,10.9,18.5,15.4,14,7.8,20.9,11.8,14.6,6.3,21.8,9.8,13,10.2,20.5,13.1,15.5,4,23.2,6.4,14.6,7.6,22.5,9.4,15.9,2.3,23.9,3.5,16.2-1.4,24.3-.8,15.8,2.4,23.9,2.4v1.1c8,0,16.3,1.9,24.2,1.3s16-2.7,23.9-3.9,15.3-5.7,23.1-7.5,15-5.2,22.6-7.6,16.2-2.1,23.6-5.1,13.7-8.6,20.9-12,16.3-3.4,23.3-7.4,14.1-8,20.7-12.5,12.4-10.4,18.7-15.4,9.8-13.1,15.6-18.5,14.4-8.3,19.8-14.2,10.9-11.8,16-18.1,6.2-15.2,10.7-21.9,9.3-12.8,13.3-19.8,12.1-11.7,15.6-18.9,2.8-16.3,5.8-23.8,9.5-13.6,11.9-21.3,2.4-16.1,4.2-23.9,3.4-15.7,4.6-23.6,2.4-15.9,3-24,.8-16,.8-24.1c0-13.5-1.7-13.5-1.7-27s-.2-13.5-.2-27.1c0-4.3-2.4-10.1-6.7-10.1h-24.2c-12,0-12,2.4-24.1,2.4s-12.1.7-24.1.7-12.1,1.7-24.1,1.7-12.1-.6-24.2-.6-12-.2-24.1-.2-12.1-3.2-24.1-3.2-12.1.9-24.2.9-12,.6-24.1.6-12.1-1.2-24.1-1.2-12.1,1-24.2,1-12,1.8-24.1,1.8-12.1-1.3-24.1-1.3-12.1-1.8-24.2-1.8-12,1.8-24.1,1.8H789.5c-12.1,0-12.1,2.7-24.1,2.7s-12.1-1.6-24.2-1.6H717.1c-12.1,0-12.1-2.2-24.1-2.2s-12.1,1-24.2,1-12-2.9-24.1-2.9-12.1,5.8-24.1,5.8H596.4c-12,0-12-1-24.1-1s-11.9-3.8-23.9-4.8C547.3,571.6,548.1,572.4,548.1,572.4Z"/><path d="M958.1,949s135.2-79.7,135.9-78.5L972.3,948.6c.1.3,96.1-58.5,97.5-56.2,0,.1-96.3,56.1-96.3,56.1l95.2-55" fill="none" stroke="#4e342e" stroke-linecap="round" stroke-linejoin="round" stroke-width="8"/><path d="M532.6,637.9s5.6-3.4,5.7-3.3-5.2,7.6-5.2,7.6,11.2-6.5,11.2-6.5-9.5,15.2-9.4,15.3,21-12.8,21.3-12.3-20.7,16-20.6,16.2,28-16.8,28.3-16.3-28.3,30.9-28.3,30.9,59.2-35.6,59.9-34.5-61.3,45.5-60.6,46.7,82.8-49.6,83.5-48.3l-81.6,60.1,103.7-59.9L538.1,699.9s114.4-66.2,114.5-66.1-112.8,74.1-112.4,74.8,125.7-76.9,127.6-73.7c.3.5-122.9,84.7-122.9,84.7s143.3-87.2,145.2-83.9c.8,1.4-143.2,90.7-141.4,93.8s159.9-98.6,162.6-93.9c1.6,2.6-162.7,94.1-162.4,94.7,2.5,4.3,162.1-98.2,164-94.8.6.9-162.6,106.4-161.8,107.8S733.7,631.1,736.6,636.2c.9,1.5-185.2,108.3-185.2,108.3S735.1,631.1,738.3,636.6c1,1.6-185.2,114.5-185.2,114.5S747.2,637.3,748,638.6c2.9,5.1-194.4,114-194.4,114,1.5,2.5,195.7-116.3,197.1-113.9,0,0-195.4,120.3-193.9,122.9S769,636.2,770.3,638.3,561.4,773.4,561.5,773.7c3.6,6.2,232.8-143.1,236.5-136.6S563.5,777.6,563.5,777.6c1.7,3,239.6-147.5,243.6-140.6,1.5,2.5-241.1,145-238.7,149.3.1.2,257.7-154.4,260.1-150.2C832.6,643.2,569,787.2,569,787.2S830.5,636.1,830.5,636.1c2.7,4.6-256.8,159.2-256.8,159.2,2.2,3.8,274.9-161.8,276.2-159.4C852.3,640,576.5,799,578.1,801.8L863.4,637.1s-286.3,161.8-282,169.2c0,0,287.7-175.4,291.7-168.4s-296.2,160.5-291.2,169c3.5,6,291.8-170.5,292.7-169S585.4,811.6,586,812.7s301.3-177.9,303.1-175c4.9,8.6-300.9,178.7-300.9,178.7,4.4,7.7,308.9-179.8,309.5-178.7L590,819.9c2,3.4,313.3-187,316-182.4,5.4,9.4-316.2,182.9-313,188.5,5.5,9.5,326.8-191.5,328-189.4,2.5,4.4-324.6,195.3-324.6,195.3S930.6,632,933.6,637.2c0,0-338.6,190.6-333.4,199.5,2.3,4.1,344-198.6,344-198.6C949.1,646.7,609,844.8,609,844.8S967.2,634.3,968.8,637,616,852.1,616,852.1c4.4,7.6,367.8-219.4,370.8-214.1,1.4,2.3-365.2,222.5-365.2,222.5,3.2,5.5,386.9-223.4,386.9-223.4,4.1,7-381.8,230.5-381.8,230.5,3.4,5.9,402.1-232.1,402.1-232.1,2.8,4.9-406,224.6-400.8,233.6,0,0,406.1-235.3,406.4-234.7S629,870.1,629,870.1c4.1,7.1,409.1-236.2,409.1-236.2S634.4,868.6,639.5,877.4c3.9,6.9,414.1-252.1,419.7-242.3,0,0-412.1,246.8-411.4,248S1073.6,629,1077.1,635.2c2.1,3.5-425.3,251.3-425.3,251.3s434.1-261.2,438.7-253.3c3.4,5.9-444.5,242-437.3,254.4L1094,633.1,661.9,894.6c6.5,11.4,441.8-266.2,446.6-257.8,2.7,4.7-437.1,264.9-437.1,264.9,2.8,4.9,458-269.2,460.1-265.7.4.8-459,264.9-457.4,267.7,3.4,5.8,464.3-272.4,466.1-269.1,5.6,9.5-462.6,267.9-459.3,273.7,4.3,7.5,468.6-284.5,474.6-274L681,908.3c3,5.4,468.3-285,474.7-274.1,0,0-478.8,265.5-473.2,275.1,0,0,472.6-282.2,476.7-275.1,7,12.1-484,262.5-476.6,275.2,0,0,469-288.6,476.7-275.3,3,5.2-469.7,278.2-468.4,280.5l489.3-282.4c6.9,11.9-487.2,281.9-485.5,284.7s489-292.1,493.3-284.7c0,0-498.9,274.7-493,284.9.8,1.4,485.9-298,493.5-284.9C1194.7,643,702,918.9,704,922.2c.6,1.1,480.5-294.8,488-281.8L705.8,923.3s486-281,486.2-280.7S715,928,716.3,930.4c0,0,467.9-286.7,475.1-274.3,0,0-473.4,275.3-473.4,275.4,3.4,5.8,467.5-283.1,473.3-273.2,2.4,4.3-471.1,265.5-463.6,278.5,5.8,10,457-275.4,462-266.7,6.5,11.4-462,260.6-457.4,268.5,1.2,2.1,452.5-270.3,456.4-263.4S732.9,938.8,732.9,938.8s452-269.4,455.7-263.1c.1.3-451.8,254.7-444.6,267.1,3.9,6.8,437.1-264.9,442.5-255.5,0,0-441.1,250.7-437.2,257.5.6,1.1,435.3-252.2,435.7-251.5,3.1,5.2-428.4,253.1-427.2,255.2,0,0,419.1-254.5,424.6-245.1,2.5,4.5-420.5,246.5-420.2,247,5,8.6,419.2-242,419.2-242,1.4,2.5-418.6,234.1-412.7,244.4,0,0,405-249.8,411.9-237.9,5.7,9.9-395.3,241.4-395.3,241.4,3.2,5.5,391.8-229.7,393.3-227,4.2,7.2-397.7,216.6-391.5,227.4,0,0,390.9-225.9,391-225.8S788.8,953.6,791,957.5c5.9,10.1,385.5-223.3,385.8-222.8,1.5,2.5-384.5,214.2-378.3,224.9,0,0,371.2-224,375.4-216.8,2.4,4.1-372.9,213.5-369.9,218.7,5.2,9,365-216.3,367.4-212.1L811.6,963.8c6.2,10.6,349.8-215.1,355.5-205.2S824.2,965.8,824.2,965.8s330.9-200.6,335.1-193.4S846.4,963.2,848.1,966.3c3.9,6.7,305.8-181,307.7-177.6S866.1,965.3,866.1,965.3s282.7-164.8,283.4-163.6c3.2,5.5-276.9,164.2-276.9,164.2,3,5.2,267.7-162.5,271.1-156.5.1.1-253.1,156-252.7,156.6,4.1,7.2,234.7-143.2,238-137.4,2.2,3.7-230.1,136.3-230.1,136.3s224.4-130.5,224.9-129.8c2.1,3.7-213,125.5-211.6,127.9s198-114.8,198.2-114.4-183.4,108.8-181,113c.6,1,169.6-100.7,170.8-98.5" fill="none" stroke="#4e342e" stroke-linecap="round" stroke-linejoin="round" stroke-width="8"/><path d="M559.9,638.7c-13.5-3.9-14.3-8.2-27.9-4.4,0,7.9-2,17.7-1.5,25.4s5.3,15.3,6.4,23.1,0,16,1.6,23.6,7.6,14.2,9.8,21.7,4.7,14.8,7.4,22.2,2.4,15.9,5.6,23.1,7.2,14,10.9,20.8,8.5,13.3,12.8,19.9,10.2,11.9,14.9,18.1,8.6,13.1,13.7,19.1,8.6,13.4,14.2,18.9,13,9.1,18.9,14.3,12.2,9.8,18.5,14.5,11.3,11.1,17.9,15.4,13.7,7.6,20.6,11.4,14.1,6.9,21.2,10.2,14.2,6.9,21.5,9.6,14.9,5,22.5,7.2,14.6,6.6,22.3,8.3,16-.2,23.8,1,15.6,0,23.5.5,15.4,1.8,23.4,1.8v-1.1c4.7,0,9.3,2.8,14,2.6-8.1-.3-16-1.6-23.8-2.5s-16.3-.2-24.1-1.7-15.2-5.6-22.9-7.7-15-5.2-22.6-7.9-16.1-2.6-23.4-5.8-14.8-6.4-21.9-10.1-11.7-11.8-18.4-16-14.9-6.3-21.4-10.9-14.5-7.6-20.6-12.7-8.7-14.3-14.4-19.8-13.8-8.9-19.1-14.9-9.2-13.2-14-19.5-9.7-12.7-14.1-19.4-7.6-14-11.5-21-9.1-13.2-12.5-20.5-8.2-13.9-11.1-21.4-4-15.6-6.3-23.3-1.4-16-3.1-23.9-5.1-15.2-6.2-23.1-4.3-15.7-4.9-23.7S559.9,646.7,559.9,638.7Z" fill="#3e2723"/><path d="M861.9,972.8v1.1c-8.1,0-16.2.3-24.2-.2s-16.1-1.3-24-2.4-15.9-2.9-23.7-4.5-16.3-1.9-24-4.1-14.3-8.1-21.8-10.9-15.5-4.6-22.8-7.9-15.1-6-22.1-9.8-11.8-11.5-18.6-15.8-14.5-7.1-20.9-12-12.2-10.4-18.2-15.7-13.7-8.9-19.4-14.6-11.6-11.4-16.9-17.5-6.8-15.1-11.6-21.5-10.6-12.2-14.9-18.9-9.8-12.9-13.6-19.9-7.9-14.1-11.3-21.4-6.4-14.8-9.2-22.4-1.5-16.3-3.8-24-6.7-14.8-8.4-22.7-2.1-15.8-3.3-23.8-1.5-15.9-2-23.9-5.1-15.9-5.1-24c0-4.3,6.1-7,10.4-7h24.4c12.2,0,12.2,1.1,24.4,1.1s12.2-3.2,24.4-3.2,12.2-.7,24.4-.7,12.2.5,24.4.5,12.2,3.7,24.4,3.7,12.2.3,24.4.3,12.2-5.1,24.4-5.1,12.1.7,24.3.7,12.2,3.4,24.4,3.4,12.2-4.1,24.4-4.1,12.2,4.1,24.4,4.1,12.2-1.7,24.4-1.7,12.2,3,24.4,3,12.2-2.4,24.4-2.4,12.2-3.4,24.4-3.4,12.2,4.1,24.4,4.1,12.2.6,24.4.6,12.2-.7,24.4-.7,12.2-2.5,24.4-2.5,12.2,2.5,24.4,2.5,12.2-4,24.4-4,12.2,4.1,24.4,4.1H1118c12.2,0,12.2-3.5,24.4-3.5s12.2-.7,24.4-.7,12.2,2.7,24.4,2.7c4.3,0,10.2,3.8,10.2,8.1,0,8.1.2,16.3-.4,24.3s-2.7,16-3.9,24-3.7,15.7-5.4,23.6-4.8,15.3-7,23-3.8,15.7-6.6,23.2-7.9,14.1-11.2,21.4-7.3,14.1-11.1,21.2-6,14.9-10.4,21.7-9.9,12.6-14.7,19.1-10.8,11.7-16.1,17.8-8.4,13.9-14.2,19.6-9.9,13-16,18.3-13.1,9.5-19.5,14.3-13.6,8.9-20.3,13.2-14.3,7.5-21.3,11.4-13.6,8.7-20.9,12.1-14.3,7.8-21.8,10.6-15.6,4.2-23.3,6.4-16,2.2-23.9,3.9-15.9,1.9-23.8,3-15.4,7.1-23.5,7.7S869.9,972.8,861.9,972.8ZM540.2,643c.2,8,1.2,16.7,1.9,24.5s2.4,15.6,3.8,23.3,3.1,15.5,5,23.1,3.8,15.3,6.3,22.8,7,14.1,10,21.4,3.2,15.8,6.8,22.9,8.6,13.3,12.6,20,9.3,12.7,13.9,19.2,6.1,15.2,11.1,21.3,12,10.6,17.4,16.3,10.6,11.9,16.4,17.2,13.5,8.4,19.7,13.3,12.8,9.1,19.3,13.5,10.9,12.3,17.8,16.2,14.6,6.4,21.8,9.8,14.9,5.1,22.3,7.9,14.9,5,22.5,7.3,15.1,4.3,22.8,6.1,14.8,7.1,22.6,8.2,16-.6,24,0,15.7,1.9,23.7,1.9,15.9.1,23.7-.4,15.3-5.7,23.1-6.9,16.2.8,23.8-1,15.5-3.7,23-6,15.5-3.9,22.8-6.8,13.4-8.8,20.6-12.2,13.7-7.6,20.5-11.5,13.7-7.7,20.3-12.1,15.1-6,21.3-10.9,12.6-9.8,18.5-15.2,7.9-14.4,13.3-20.2,11.1-11,16.1-17.1,12.5-10.3,17.1-16.8,5.4-15.3,9.5-22,11.4-11.7,14.9-18.8,5.4-15,8.4-22.3,8.6-13.7,11.1-21.2,2.4-15.9,4.3-23.6.2-15.9,1.5-23.7,6.5-15,7.3-22.9.6-17.5.8-25.4c-11.2-3.8-12.4.6-24.3.6s-11.9,2.5-23.8,2.5-11.9-2.5-23.8-2.5-11.9,4-23.8,4-12-4.1-23.9-4.1h-23.8c-11.9,0-11.9,3.5-23.8,3.5s-11.9.7-23.8.7-11.9-2.7-23.8-2.7-11.9,2.1-23.8,2.1-11.9.4-23.8.4-11.9-1.3-23.8-1.3-11.9-1.2-23.8-1.2S861.9,643,850,643s-11.9,1-23.8,1-11.9-2.2-23.8-2.2-11.9-.5-23.8-.5-11.9,2.2-23.9,2.2-11.9-1.2-23.8-1.2-11.9-1.2-23.8-1.2-11.9,3-23.8,3-11.9,2.4-23.8,2.4-11.9-1.2-23.8-1.2-11.9-.7-23.8-.7-11.9-1.2-23.8-1.2-12.1,2.9-24,1.4S551.4,639.2,540.2,643Z"/><path d="M946.9,1001.2c.1.3,72.6-23.6,72.6-23.6s-69.4,21.9-68.8,23.8,68.5-23.3,68.8-22.4-52.6,23.7-52.2,25,53-17.7,53.2-17.3-22.6,18.9-22.6,18.9,22.7-7.9,22.9-7.4l-19,8c.1.2,17.2-6,17.3-5.6s-14.4,6.2-14.4,6.2,12.4-4.3,12.5-4.1" fill="none" stroke="#6d4c41" stroke-linecap="round" stroke-linejoin="round" stroke-width="8"/><path d="M875.2,1000.8c.5,1.3,143.3-47.6,143.6-46.6,1.1,3.5-115.4,48.8-115.4,48.8.7,2.4,115.7-37.6,115.7-37.6.8,2.5-101.1,39.9-101.1,39.9s101.4-32.9,101.4-32.9-98.7,31.4-98.2,33,98.3-31.9,98.3-31.9" fill="none" stroke="#6d4c41" stroke-linecap="round" stroke-linejoin="round" stroke-width="8"/><path d="M802.6,1001.3c1,3.2,214.8-73,215.8-70.1.2.6-187.4,69.5-187.4,69.5s190.4-63.5,190.9-62c1.1,3.6-181.7,65-181.6,65.2.7,2.1,178.6-62.6,179.9-58.4l-171.6,60c.5,1.5,169.8-57.7,170.6-55.4" fill="none" stroke="#6d4c41" stroke-linecap="round" stroke-linejoin="round" stroke-width="8"/><path d="M732.9,1001.3c1.8,5.5,211.4-74.9,213.2-69.3,0,0-206.9,68.4-206.2,70.3,1.1,3.5,226-74.2,226.3-73.5.8,2.4-219.3,71.1-218,75.2S979,929,979,929c1.4,4.1-228.3,69.6-226.5,75.2S982.2,928,982.7,929.4s-218.6,72.2-217.5,75.5c0,0,229.3-77.6,230.2-74.8s-220.9,74.6-220.6,75.5l239.4-77.8s-238.9,73.3-237.4,77.8c.6,1.8,236.2-83,238.1-77.4" fill="none" stroke="#6d4c41" stroke-linecap="round" stroke-linejoin="round" stroke-width="8"/><path d="M706.5,931.8l10.8-3.5c.1.4-15.8,15.2-15.7,15.6l50.6-16.4c0,.1-50.1,18.9-50.1,18.9s57.2-19.5,57.5-18.7S703.8,954,704.2,955l76.6-24.9c.6,2.1-76.5,35.5-76,37.2,0,0,121.2-42.9,122.2-39.7.1.1-122.9,42.4-122.6,43.3,1.2,3.8,128.9-44.7,129.7-42.1s-130.3,53-130.3,53c1.3,4.1,150.3-51.3,151.1-49.1s-154.8,62.1-154.8,62.1c1,2.9,205.5-66.7,205.5-66.7.6,1.9-205.6,70.3-204.1,74.7s220.4-71.6,220.4-71.6c1,3-218,69.8-216,75.9.4,1.3,231.3-77.1,231.9-75.3,1.4,4.3-231.3,75.7-231.3,75.7.6,1.8,232.5-76,232.7-75.7" fill="none" stroke="#6d4c41" stroke-linecap="round" stroke-linejoin="round" stroke-width="8"/><path d="M1018.3,1011.5c-12,0-12-2.7-24.1-2.7s-12,1.6-24,1.6-12.1,1-24.1,1-12-3.2-24.1-3.2-12,4.8-24,4.8H873.9c-12,0-12-.9-24.1-.9s-12-1.7-24-1.7-12.1,1-24.1,1-12-1.6-24.1-1.6-12,3.9-24,3.9-12.1-1.1-24.1-1.1-12.1-2.9-24.1-2.9c-4.3,0-10.4-2-10.4-6.3,0-12.2,4.6-12.2,4.6-24.4s-4.1-12.1-4.1-24.3.4-12.2.4-24.4c0-4.3,5.2-5.2,9.5-5.2,12,0,12-2.9,24.1-2.9s12-1,24-1,12.1,1.1,24.1,1.1,12-2.2,24.1-2.2,12-.4,24-.4,12.1,5.6,24.1,5.6,12-.7,24.1-.7,12-2.5,24-2.5,12.1-1.6,24.1-1.6,12.1,2.7,24.1,2.7,12-.5,24.1-.5,12,1.8,24,1.8,12.1-.9,24.1-.9c4.3,0,9.1,2.4,9.1,6.7,0,12.2,1.1,12.2,1.1,24.4s-5.2,12.2-5.2,24.3,4.4,12.2,4.4,24.4C1027.7,1007.6,1022.7,1011.5,1018.3,1011.5ZM713.5,995.2c8.1,9.4,12.1,2.6,24.5,2.6s12.4-1.6,24.8-1.6,12.4-1,24.7-1,12.4,3.2,24.8,3.2,12.4-4.8,24.8-4.8h24.7c12.4,0,12.4.9,24.8.9s12.4,1.7,24.8,1.7,12.4-1,24.7-1,12.4,1.6,24.8,1.6,12.4-3.9,24.8-3.9,15.7,11,23.8,1.6,2.6-13.5,2.6-27.8,5.8-16.2-3.5-27.1-10.5-3.7-22.9-3.7-12.4,4.1-24.8,4.1-12.4-.3-24.7-.3-12.4-4.4-24.8-4.4-12.4,2.9-24.8,2.9-12.3,1-24.7,1-12.4-1-24.8-1-12.4,2.1-24.8,2.1-12.3.5-24.7.5-12.4-5.6-24.8-5.6-12.4.7-24.8.7-16.4-7-24.5,2.3c-9.3,10.9,4.5,14.8,1.7,28.9S704.1,984.4,713.5,995.2Z"/><path d="M838.6,412.9H841c.8-9.7-2.4-19.5-4.7-28.8s-8-17-13.1-25.2c-.3-.6.8-1.3.4-1.9-5.1-8.2-8.7-17.7-8.7-26.6s4.4-18.6,9.3-26.4,11.4-15,20.1-19.2c2.1-1,5.5-3.6,6.6-1.5,3.4,6.6-.7,8.2.4,15.4a92.1,92.1,0,0,0,4.9,17.8c2.1,5.7,5.6,10.7,8.8,16,1.9,3,2.9,2.4,4.8,5.4,4.3,6.9,7.5,15.2,8.1,22.6s-3.9,15.4-6.7,22.5a49.3,49.3,0,0,1-12.8,18.6,48.7,48.7,0,0,1-19.9,10.8C838.4,412.4,838.6,412.9,838.6,412.9Z" fill="#f7f7f7"/><path d="M838.6,412.9H841c.8-9.7-2.4-19.5-4.7-28.8s-8-17-13.1-25.2c-.3-.6.8-1.3.4-1.9-5.1-8.2-8.7-17.7-8.7-26.6s4.4-18.6,9.3-26.4,11.4-15,20.1-19.2c2.1-1,5.5-3.6,6.6-1.5,3.4,6.6-.7,8.2.4,15.4a92.1,92.1,0,0,0,4.9,17.8c2.1,5.7,5.6,10.7,8.8,16,1.9,3,2.9,2.4,4.8,5.4,4.3,6.9,7.5,15.2,8.1,22.6s-3.9,15.4-6.7,22.5a49.3,49.3,0,0,1-12.8,18.6,48.7,48.7,0,0,1-19.9,10.8C838.4,412.4,838.6,412.9,838.6,412.9Z" fill="none" stroke="#efebe9" stroke-miterlimit="10"/><path d="M853.8,395.2l.4,1.2.5.6c.8-9.6-3-18.7-5.3-28s-3.8-18.6-8.9-26.8c-.4-.6.9-1.3.5-1.9-5.1-8.2-5.5-16.6-5.5-25.4s-1.9-16.6,2.9-24.4c-7.5,4.7-11.7,9.6-15.7,16.9s-6.7,16.2-6.4,24.9,5.1,15.5,9.8,23.2c.4.6-.8,1.3-.5,1.9,5.2,8.2,7.6,17.6,9.9,26.9s.9,18.5.1,28.1l3,2.2.4-.4c6.3-1.7,10.1-7.8,14.9-11.4s13.5-7.4,16.7-12.6C866.5,392.7,858.7,393.9,853.8,395.2Z" fill="#ededed"/><path d="M853.8,395.2l.4,1.2.5.6c.8-9.6-3-18.7-5.3-28s-3.8-18.6-8.9-26.8c-.4-.6.9-1.3.5-1.9-5.1-8.2-5.5-16.6-5.5-25.4s-1.9-16.6,2.9-24.4c-7.5,4.7-11.7,9.6-15.7,16.9s-6.7,16.2-6.4,24.9,5.1,15.5,9.8,23.2c.4.6-.8,1.3-.5,1.9,5.2,8.2,7.6,17.6,9.9,26.9s.9,18.5.1,28.1l3,2.2.4-.4c6.3-1.7,10.1-7.8,14.9-11.4s13.5-7.4,16.7-12.6C866.5,392.7,858.7,393.9,853.8,395.2Z" fill="none" stroke="#efebe9" stroke-miterlimit="10"/><path d="M838.6,421.5c-1.8,0-3.1-2.1-4.6-3.3s-3-3.6-2.8-6.1c.7-8.9,1-18.1-1-26.5S823,369.5,818.3,362c-.4-.6-2,.3-2.3-.2-4.3-6.8-5.9-15.4-6.9-23.2s2.3-15.3,4.5-23,4.2-15.4,9.4-21.5,10.4-13.1,17.7-16.6c2.1-1.1,2.2-1,4.3-2s6,0,8.2,1.1,1.8,4.2,2.2,6.7c1.1,7.2,1.9,7.1,3,14.4,1.7,11.1,4,23.1,10,32.7,1.9,3,6.8,0,8.7,3,4.7,7.8,2.5,18,3.3,26.6s1.9,17.2-1.4,25.6-6.6,18.1-13.2,24-16,9.1-24.9,11.5A9.3,9.3,0,0,1,838.6,421.5Zm4.8-124.2c-8.1,5.4-14.9,12.4-17.6,21.8a42,42,0,0,0,4.9,33.5c.4.6-.5,1.1-.2,1.7,4.5,7.2,9.6,14,12,21.9s4.6,14.4,5,22.8A35.5,35.5,0,0,0,864,379.8c2.4-6.1,6.3-12.5,5.7-18.8s-4.6-12.4-8.1-17.9c-1.9-3.1-3.9-1.9-5.8-4.9a106.1,106.1,0,0,1-8.8-18.3c-2.3-6.3-2.9-13.4-4-20C843.1,298.2,845.1,296.9,843.4,297.3Z" fill="#333"/><path d="M838.6,421.5c-1.8,0-3.1-2.1-4.6-3.3s-3-3.6-2.8-6.1c.7-8.9,1-18.1-1-26.5S823,369.5,818.3,362c-.4-.6-2,.3-2.3-.2-4.3-6.8-5.9-15.4-6.9-23.2s2.3-15.3,4.5-23,4.2-15.4,9.4-21.5,10.4-13.1,17.7-16.6c2.1-1.1,2.2-1,4.3-2s6,0,8.2,1.1,1.8,4.2,2.2,6.7c1.1,7.2,1.9,7.1,3,14.4,1.7,11.1,4,23.1,10,32.7,1.9,3,6.8,0,8.7,3,4.7,7.8,2.5,18,3.3,26.6s1.9,17.2-1.4,25.6-6.6,18.1-13.2,24-16,9.1-24.9,11.5A9.3,9.3,0,0,1,838.6,421.5Zm4.8-124.2c-8.1,5.4-14.9,12.4-17.6,21.8a42,42,0,0,0,4.9,33.5c.4.6-.5,1.1-.2,1.7,4.5,7.2,9.6,14,12,21.9s4.6,14.4,5,22.8A35.5,35.5,0,0,0,864,379.8c2.4-6.1,6.3-12.5,5.7-18.8s-4.6-12.4-8.1-17.9c-1.9-3.1-3.9-1.9-5.8-4.9a106.1,106.1,0,0,1-8.8-18.3c-2.3-6.3-2.9-13.4-4-20C843.1,298.2,845.1,296.9,843.4,297.3Z" fill="none" stroke="#efebe9" stroke-miterlimit="10"/><path d="M713.4,491.3h2.9c.7-9.6-3.3-19.4-5.6-28.7s-7.6-17-12.7-25.3c-.4-.5.5-1.1.1-1.6-5.1-8.2-8.8-18-8.8-26.9s4.9-18.5,9.8-26.3,12.1-13.3,20.8-17.6c2.2-1,4.6-5.2,5.7-3.1,3.4,6.5-1,8.2.1,15.5s1.6,12.4,3.7,18.2,7.6,9.9,10.8,15.2c1.9,3,2.2,2.8,4.1,5.9,4.3,6.9,2.1,15.4,2.8,22.8s2.2,15.1-.6,22.2-5.5,15.4-11.3,20.6-14.7,4.3-22.5,6.4C712.5,488.6,713.4,491.3,713.4,491.3Z" fill="#f7f7f7"/><path d="M713.4,491.3h2.9c.7-9.6-3.3-19.4-5.6-28.7s-7.6-17-12.7-25.3c-.4-.5.5-1.1.1-1.6-5.1-8.2-8.8-18-8.8-26.9s4.9-18.5,9.8-26.3,12.1-13.3,20.8-17.6c2.2-1,4.6-5.2,5.7-3.1,3.4,6.5-1,8.2.1,15.5s1.6,12.4,3.7,18.2,7.6,9.9,10.8,15.2c1.9,3,2.2,2.8,4.1,5.9,4.3,6.9,2.1,15.4,2.8,22.8s2.2,15.1-.6,22.2-5.5,15.4-11.3,20.6-14.7,4.3-22.5,6.4C712.5,488.6,713.4,491.3,713.4,491.3Z" fill="none" stroke="#efebe9" stroke-miterlimit="10"/><path d="M728.6,473.6l.5,4.6-1.2-3c.8-9.6,2.6-19.5.3-28.8s-9.7-16.4-14.8-24.6l-.8-1.2c-5.1-8.1-4.2-18.5-4.2-27.4s2.1-18.5,7-26.3A51.3,51.3,0,0,0,698,386c-4.1,7.6-4.2,15.9-3.9,24.5s1.3,16.2,6,23.8c.4.6-1.8,2-1.4,2.5,5.1,8.3,11.1,16.1,13.3,25.4a90.5,90.5,0,0,1,2.7,28.9l-1.3,1v-.8a49.1,49.1,0,0,0,16.6-8.4,52.1,52.1,0,0,0,13.2-13.7C739.2,471.8,733.6,472.3,728.6,473.6Z" fill="#ededed"/><path d="M728.6,473.6l.5,4.6-1.2-3c.8-9.6,2.6-19.5.3-28.8s-9.7-16.4-14.8-24.6l-.8-1.2c-5.1-8.1-4.2-18.5-4.2-27.4s2.1-18.5,7-26.3A51.3,51.3,0,0,0,698,386c-4.1,7.6-4.2,15.9-3.9,24.5s1.3,16.2,6,23.8c.4.6-1.8,2-1.4,2.5,5.1,8.3,11.1,16.1,13.3,25.4a90.5,90.5,0,0,1,2.7,28.9l-1.3,1v-.8a49.1,49.1,0,0,0,16.6-8.4,52.1,52.1,0,0,0,13.2-13.7C739.2,471.8,733.6,472.3,728.6,473.6Z" fill="none" stroke="#efebe9" stroke-miterlimit="10"/><path d="M713.4,499.1c-1.8,0-3-1.6-4.4-2.7s-3.7-3.5-3.5-6c.7-8.9,2.1-18.2,0-26.6a88.4,88.4,0,0,0-10-25c-.4-.6-2.3.6-2.6,0-4.3-6.8-5.7-14.4-6.8-22.2s.6-14.9,2.8-22.6,3.3-15.8,8.5-21.9,10.5-13.4,17.8-16.9c2.2-1.1,2.7,0,4.8-1.1s5.9-.3,8.1.8,2.9,4.1,3.3,6.5c1.1,7.3,2.5,7.1,3.6,14.3,1.7,11.2,6.7,20.6,12.7,30.2,1.9,3.1.8,3.7,2.7,6.8,4.8,7.7,5.7,16.9,6.5,25.5s-1.5,16.6-4.8,25.1-4.6,19-11.2,24.9a64.4,64.4,0,0,1-24.7,13C715.5,501.4,714.1,499.1,713.4,499.1ZM718.1,375c-8.1,5.4-14.9,13-17.6,22.3-3.3,11.4-.7,23.3,5.6,33.3.3.6-1.5,1.8-1.2,2.3,4.5,7.2,7.3,14.5,9.8,22.5s6.3,15.7,6.6,24.1c8.2-4.6,16.1-11.6,19.6-20.6,2.4-6.1,4.7-13.3,4.1-19.6s-5.6-12-9-17.6c-1.9-3.1-4-1.8-5.9-4.8-3.6-5.7-5.6-12.6-7.9-18.8s-3.3-13.2-4.4-19.9C717.9,376.2,719.8,374.6,718.1,375Z" fill="#333"/><path d="M713.4,499.1c-1.8,0-3-1.6-4.4-2.7s-3.7-3.5-3.5-6c.7-8.9,2.1-18.2,0-26.6a88.4,88.4,0,0,0-10-25c-.4-.6-2.3.6-2.6,0-4.3-6.8-5.7-14.4-6.8-22.2s.6-14.9,2.8-22.6,3.3-15.8,8.5-21.9,10.5-13.4,17.8-16.9c2.2-1.1,2.7,0,4.8-1.1s5.9-.3,8.1.8,2.9,4.1,3.3,6.5c1.1,7.3,2.5,7.1,3.6,14.3,1.7,11.2,6.7,20.6,12.7,30.2,1.9,3.1.8,3.7,2.7,6.8,4.8,7.7,5.7,16.9,6.5,25.5s-1.5,16.6-4.8,25.1-4.6,19-11.2,24.9a64.4,64.4,0,0,1-24.7,13C715.5,501.4,714.1,499.1,713.4,499.1ZM718.1,375c-8.1,5.4-14.9,13-17.6,22.3-3.3,11.4-.7,23.3,5.6,33.3.3.6-1.5,1.8-1.2,2.3,4.5,7.2,7.3,14.5,9.8,22.5s6.3,15.7,6.6,24.1c8.2-4.6,16.1-11.6,19.6-20.6,2.4-6.1,4.7-13.3,4.1-19.6s-5.6-12-9-17.6c-1.9-3.1-4-1.8-5.9-4.8-3.6-5.7-5.6-12.6-7.9-18.8s-3.3-13.2-4.4-19.9C717.9,376.2,719.8,374.6,718.1,375Z" fill="none" stroke="#efebe9" stroke-miterlimit="10"/><path d="M963.8,493.8l.4-2.8c.7-9.6-3.4-18.6-5.6-27.9s-2.2-19.5-7.3-27.7c-.4-.6.2-.9-.2-1.5-5.1-8.2-7.9-16.3-7.9-25.2s.5-19,5.4-26.8,13.3-12.1,22-16.3c2.2-1.1,5.4-6.6,6.5-4.4,3.4,6.5-2.7,8.8-1.6,16a94.2,94.2,0,0,0,4.6,18.1c2.1,5.7,7.9,9.6,11.1,14.9,1.9,3,2.5,2.6,4.4,5.7,4.3,6.8,4.4,15.8,5.1,23.1s1.3,16.4-1.6,23.4-7.6,14.8-13.4,19.9-13.4,7.8-21.2,9.9C963.4,493,963.8,493.8,963.8,493.8Z" fill="#f7f7f7"/><path d="M963.8,493.8l.4-2.8c.7-9.6-3.4-18.6-5.6-27.9s-2.2-19.5-7.3-27.7c-.4-.6.2-.9-.2-1.5-5.1-8.2-7.9-16.3-7.9-25.2s.5-19,5.4-26.8,13.3-12.1,22-16.3c2.2-1.1,5.4-6.6,6.5-4.4,3.4,6.5-2.7,8.8-1.6,16a94.2,94.2,0,0,0,4.6,18.1c2.1,5.7,7.9,9.6,11.1,14.9,1.9,3,2.5,2.6,4.4,5.7,4.3,6.8,4.4,15.8,5.1,23.1s1.3,16.4-1.6,23.4-7.6,14.8-13.4,19.9-13.4,7.8-21.2,9.9C963.4,493,963.8,493.8,963.8,493.8Z" fill="none" stroke="#efebe9" stroke-miterlimit="10"/><path d="M979.3,475.1v1.5l1.7-1.1c.7-9.7-4.2-18.8-6.5-28.1s-2.8-19.3-8-27.5a6.7,6.7,0,0,0-.6-1.2c-5.1-8.1-6.3-16.6-6.2-25.5s-.2-17.3,4.6-25.1c-7.5,4.7-10.8,11.3-14.7,18.6s-6.3,15.2-6,23.8-.7,17.9,4,25.5c.4.6.1.8.5,1.3,5.1,8.3,13.5,15.2,15.7,24.5s2.5,19.7,1.7,29.3l-1.8,1.5-.7-4c6.3-1.7,13.4-.9,18.2-4.4s8.3-9.6,11.6-14.8A47.1,47.1,0,0,1,979.3,475.1Z" fill="#ededed"/><path d="M979.3,475.1v1.5l1.7-1.1c.7-9.7-4.2-18.8-6.5-28.1s-2.8-19.3-8-27.5a6.7,6.7,0,0,0-.6-1.2c-5.1-8.1-6.3-16.6-6.2-25.5s-.2-17.3,4.6-25.1c-7.5,4.7-10.8,11.3-14.7,18.6s-6.3,15.2-6,23.8-.7,17.9,4,25.5c.4.6.1.8.5,1.3,5.1,8.3,13.5,15.2,15.7,24.5s2.5,19.7,1.7,29.3l-1.8,1.5-.7-4c6.3-1.7,13.4-.9,18.2-4.4s8.3-9.6,11.6-14.8A47.1,47.1,0,0,1,979.3,475.1Z" fill="none" stroke="#efebe9" stroke-miterlimit="10"/><path d="M963.8,498c-1.8,0-3.8.4-5.2-.8s-3.7-4.3-3.5-6.9A87.1,87.1,0,0,0,943,440.5c-.3-.5-2,.5-2.3-.1-4.3-6.8-4-15.9-5.1-23.7s-1.9-15.9.4-23.6,5.3-16,10.5-22.1,13.9-7.9,21.2-11.4c2.1-1.1,1.2-3.1,3.3-4.1s4.5-.4,6.7.8,5.8,2.3,6.2,4.8c1.1,7.3,1.5,7.2,2.7,14.4,1.7,11.2,1.5,23.3,7.5,32.9,1.9,3,3,2.3,4.9,5.4,4.8,7.7,9.1,15.6,9.9,24.3a58.5,58.5,0,0,1-3.4,26.4A60.6,60.6,0,0,1,990,486.8c-6.6,5.8-16,6.6-24.9,9C964.4,496,964.4,498,963.8,498Zm4.3-124.2c-8,5.5-13.5,14.5-16.2,23.9-3.3,11.3-1.1,22.5,5.1,32.6.4.5.5.4.9,1a96.9,96.9,0,0,1,10.2,23.1c2.5,8,4.4,14,4.8,22.4,8.1-4.7,14.1-9.2,17.6-18.2,2.4-6.1,2-12.7,1.4-19s-3.5-11.5-7-17.1c-1.9-3,1.6-5.1-.3-8.2-3.6-5.7-8.4-10.5-10.7-16.7s-3.2-12.7-4.2-19.4C969.7,375.7,969.9,373.4,968.1,373.8Z" fill="#333"/><path d="M963.8,498c-1.8,0-3.8.4-5.2-.8s-3.7-4.3-3.5-6.9A87.1,87.1,0,0,0,943,440.5c-.3-.5-2,.5-2.3-.1-4.3-6.8-4-15.9-5.1-23.7s-1.9-15.9.4-23.6,5.3-16,10.5-22.1,13.9-7.9,21.2-11.4c2.1-1.1,1.2-3.1,3.3-4.1s4.5-.4,6.7.8,5.8,2.3,6.2,4.8c1.1,7.3,1.5,7.2,2.7,14.4,1.7,11.2,1.5,23.3,7.5,32.9,1.9,3,3,2.3,4.9,5.4,4.8,7.7,9.1,15.6,9.9,24.3a58.5,58.5,0,0,1-3.4,26.4A60.6,60.6,0,0,1,990,486.8c-6.6,5.8-16,6.6-24.9,9C964.4,496,964.4,498,963.8,498Zm4.3-124.2c-8,5.5-13.5,14.5-16.2,23.9-3.3,11.3-1.1,22.5,5.1,32.6.4.5.5.4.9,1a96.9,96.9,0,0,1,10.2,23.1c2.5,8,4.4,14,4.8,22.4,8.1-4.7,14.1-9.2,17.6-18.2,2.4-6.1,2-12.7,1.4-19s-3.5-11.5-7-17.1c-1.9-3,1.6-5.1-.3-8.2-3.6-5.7-8.4-10.5-10.7-16.7s-3.2-12.7-4.2-19.4C969.7,375.7,969.9,373.4,968.1,373.8Z" fill="none" stroke="#efebe9" stroke-miterlimit="10"/><path d="M858.3,489.3c-4.3,0-9-.7-9-5.1,0-12.9,2.9-12.9,2.9-25.8,0-4.3,1.8-8.4,6.1-8.4s6.7,4.1,6.7,8.4c0,12.9,1.6,12.9,1.6,25.8C866.6,488.6,862.6,489.3,858.3,489.3Z" fill="#333"/><path d="M905.7,541.4c-4.4,0-5.5-3-5.5-7.3,0-12.9-.7-12.9-.7-25.8,0-4.4,1.8-5,6.2-5s9.5.6,9.5,5c0,12.9-1,12.9-1,25.8C914.2,538.4,910,541.4,905.7,541.4Z" fill="#333"/><path d="M668.3,534.7c-4.4,0-6.9-2.3-6.9-6.6,0-12.9,1.1-12.9,1.1-25.8,0-4.3,1.4-6,5.8-6s8.7,1.7,8.7,6c0,12.9-.7,12.9-.7,25.8C676.3,532.4,672.6,534.7,668.3,534.7Z" fill="#333"/><path d="M786.7,540.9c-4.3,0-10.6-2.5-10.6-6.8,0-12.9,4.3-12.9,4.3-25.8,0-4.4,2-6.8,6.3-6.8s10.8,2.4,10.8,6.8c0,12.9-5.1,12.9-5.1,25.8C792.4,538.4,791.1,540.9,786.7,540.9Z" fill="#333"/><path d="M636.8,758.5c-4.3,1-3.7-2.6-7.1-5.5l-6.7-5.7c-3.4-2.9-3-3.4-6.3-6.2s-3.5-2.7-6.9-5.6l-6.9-5.5c-3.4-2.9-6.4-1.4-6.4-5.8s3.1-2.8,6.5-5.7l6.8-5.6c3.4-2.8,3.1-3.1,6.5-6s3.6-2.5,7-5.4,3.1-3.1,6.5-5.9,2.6-6.3,6.9-5.3c6.5,1.5,8.5,2.7,9.3,9.3.6,4.8-3.4,3.3-7.1,6.4s-3.7,3.1-7.4,6.2l-7.5,6c-3.7,3.1-7.8,1.1-7.8,5.9s4.1,2.7,7.8,5.8,3.4,3.5,7.2,6.6,4,2.8,7.7,5.9,6.1,1.7,7.6,6.4C648.6,755.4,643.3,757,636.8,758.5Z" fill="#efebe9" stroke="#8d6e63" stroke-linecap="round" stroke-linejoin="round" stroke-width="3"/><path d="M702.5,757.1c-2.9-4-.3-5.1-.3-10.1s.1-4.9.1-9.9.6-5,.6-10-.2-5-.2-9.9a13.3,13.3,0,0,0-1.6-6.9,6.5,6.5,0,0,0-5.9-3.5c-2.5,0-4.9,1.3-7.2,3.3a51.7,51.7,0,0,0-7.3,8.2c-.9,4.7.5,4.8.5,9.7s-.5,4.8-.5,9.6.4,4.9.4,9.7,2.5,5.7-.4,9.6-3.5-.1-7.2-.1-5.4,3.3-7.6.4-.1-4.9-.1-9.7v-9.4c0-4.7.5-4.7.5-9.4s-.6-4.8-.6-9.5.5-4.7.5-9.4-.4-4.8-.4-9.5v-9.4c0-4.7.5-4.7.5-9.5s-2.8-5.5.1-9.2,3.4-.6,7.1-.6,5.4-2.8,7.5.3,0,5.3,0,10.5.4,5.3.2,10.5-1.3,5.5-1,11.1a46.7,46.7,0,0,1,4-3.8c1.2-1.1,2.2-2.7,3.7-3.5s3.3-.9,5-1.4a25,25,0,0,1,5.7-1.1,22.1,22.1,0,0,1,8.4,1.5c2.3,1,3.8,3.1,5.3,5a17.3,17.3,0,0,1,3.7,6.5,29.3,29.3,0,0,1,1.7,8.8c0,4.1-.7,4.1-.7,8.2s.2,4.1.2,8.2-.2,4.1-.2,8.2.7,4.1.7,8.2,2.2,5-.5,8.1-3.6-.5-7.2.3S704.7,760,702.5,757.1Z" fill="#efebe9" stroke="#8d6e63" stroke-linecap="round" stroke-linejoin="round" stroke-width="3"/><path d="M784.5,756.4c-2.7.6-5.4,1.5-8.1,1.9a51.6,51.6,0,0,1-7.7.4,37.3,37.3,0,0,1-10.3-1.8,18.9,18.9,0,0,1-7.2-3.7,15,15,0,0,1-4.4-6.5c-.9-2.7-1-5.9-1-9.6s-.3-4.9-.3-9.9.2-5,.2-10,2.8-5.9-.4-9.7-3.9-.3-8-.3-6,3.6-8.4.2-3-6.8.4-11.4,3.9,0,8,0,5,2.4,8-.4-.2-3.7-.2-7.6-2.2-4.9.1-8,4.1-.6,7.9-1.6,5.1-5.2,7.8-2.4-.4,5.2-.4,10.1-2.7,5.7.3,9.5,3.7-.1,7.7-.1,4,.4,7.9.4,5.4-3.1,7.7.1c3.2,4.7,3.8,6.8.5,11.5s-4.2,0-8.2,0h-7.9c-4,0-5.1-3-7.6,0s-.2,4.6-.2,9.4-.5,4.8-.5,9.6.7,4.8.7,9.6.3,6.2,1.9,8,4.5,2.2,8.2,2.2a39.5,39.5,0,0,0,7-.7c2.3-.4,4.1-.2,6-.7C787,750,785.7,750.7,784.5,756.4Z" fill="#efebe9" stroke="#8d6e63" stroke-linecap="round" stroke-linejoin="round" stroke-width="3"/><path d="M844.7,757.1c-3.5-2.3-.4-4.3-.4-8.4s.1-4.2.1-8.4.7-4.1.7-8.3-.2-4.2-.2-8.3-.2-4.2-.2-8.3c0-1.6.3-2.9.3-4.1a10.3,10.3,0,0,0-.8-2.8,3.2,3.2,0,0,0-1-1.8c-.4-.4-1.1-.2-1.9-.2a4.4,4.4,0,0,0-3.8,2.2c-1.2,1.7-2.2,4.6-3.7,8.7a54.3,54.3,0,0,0-.5,9.9v9.9c0,4.9.6,4.9.6,9.9s3.8,7.1-.1,10.2-7.8,3.5-13.1,0c-3.4-2.3.3-4.5.3-8.6s-.5-4.2-.5-8.4.5-4.1.5-8.3-.4-4.2-.4-8.3v-8.3c0-1.6.4-2.9.3-4.1a12.3,12.3,0,0,0-.3-2.9c-.2-.8-1.1-1-1.6-1.3a2.4,2.4,0,0,0-1.7-.7q-1.5,0-3.3,2.4c-1.3,1.7-2.5,4.5-4.1,8.6a65.1,65.1,0,0,0-.3,9.9c0,4.9-.4,4.9-.4,9.9s.7,4.9.7,9.9,3.4,6.7-.5,9.7-7.5,4-12.7.4c-3.6-2.4-.3-4.6-.3-8.9s.8-4.4.8-8.8-.2-4.3-.2-8.7-.5-4.4-.5-8.7.7-4.4.7-8.8-.2-4.3-.2-8.7-3.3-5.7.1-8.5,6.6-3.9,10.9-.5-.9,4.8-.2,9.2a41.6,41.6,0,0,1,2.6-4.8,17.8,17.8,0,0,1,3-3.1,11.8,11.8,0,0,1,3.2-1.9,15.9,15.9,0,0,1,4-.7,10.5,10.5,0,0,1,7.7,3.1,10.9,10.9,0,0,1,3.1,7.3,43.4,43.4,0,0,1,2.7-4.6,25.6,25.6,0,0,1,2.9-3.4,11.7,11.7,0,0,1,3.4-2,16.8,16.8,0,0,1,4-.5c4.5,0,8.1,1.8,10.2,4.9s1.6,4.2,2.1,6.9a37.9,37.9,0,0,1,.7,7.1c0,4.4.5,4.4.5,8.8s-.4,4.4-.4,8.8-.1,4.4-.1,8.7-.4,4.4-.4,8.8,3.1,5.2.8,9C854.4,762.9,850,760.6,844.7,757.1Z" fill="#efebe9" stroke="#8d6e63" stroke-linecap="round" stroke-linejoin="round" stroke-width="3"/><path d="M889,683.5c-3-3.1-4.2.4-8.5.4s-6.3,3.2-8.9-.3-2.8-6.8.5-11.5,3.8,0,7.9,0,4-.2,8-.2,4.1.4,8.1.4,5.4-3.4,8.1-.3-.1,4.6-.1,9.2.4,4.6.4,9.2-.4,4.6-.4,9.2.4,4.6.4,9.2-.5,4.6-.5,9.2v9.2c0,4.6.6,4.6.6,9.2s-3.3,5.5-.1,8.9,4.1-.1,8.5-.1,6-3.1,8.7.4,3.9,7.1.5,11.7-4.7-.4-9-.4-4.4.4-8.7.4h-8.7c-4.3,0-4.3-.5-8.7-.5s-4.3-.2-8.6-.2-6.4,4-9,.5-3.6-7.4.1-11.8,5,0,9.9,0,5.8,3.1,9.4-.1.2-4.2.2-8.6.4-4.5.4-8.9-.7-4.4-.7-8.9.5-4.4.5-8.8-.4-4.5-.4-8.9-1.1-4.6-.2-9S892.1,686.7,889,683.5Z" fill="#efebe9" stroke="#8d6e63" stroke-linecap="round" stroke-linejoin="round" stroke-width="3"/><path d="M949.8,689.9c4.3-1,3.7,2.7,7.1,5.5l6.7,5.8c3.4,2.8,3,3.3,6.4,6.1s3.4,2.8,6.8,5.6l6.9,5.5c3.4,2.9,6.4,1.4,6.4,5.8s-3.1,2.8-6.5,5.7l-6.8,5.6c-3.4,2.8-3.1,3.2-6.5,6s-3.6,2.5-7,5.4-3.1,3.1-6.5,6-2.6,6.3-6.9,5.3c-6.5-1.6-8.4-2.7-9.2-9.4-.6-4.7,3.3-3.3,7.1-6.3s3.6-3.2,7.4-6.2l7.4-6.1c3.8-3.1,7.8-1.1,7.8-5.9s-4.1-2.7-7.8-5.8-3.4-3.5-7.1-6.6-4-2.8-7.7-5.9-6.1-1.7-7.6-6.3C938,693.1,943.3,691.5,949.8,689.9Z" fill="#efebe9" stroke="#8d6e63" stroke-linecap="round" stroke-linejoin="round" stroke-width="3"/><path d="M797,863.6c-4.3,1-3.8-2.6-7.1-5.5s-3.3-2.9-6.7-5.8-3-3.3-6.4-6.1-3.5-2.8-6.8-5.6-3.5-2.7-6.9-5.6-6.4-1.3-6.4-5.7,3.1-2.9,6.4-5.7,3.5-2.7,6.9-5.6,3.1-3.2,6.4-6,3.7-2.5,7.1-5.4,3.1-3.1,6.5-5.9,2.6-6.4,6.9-5.3c6.5,1.5,8.4,2.7,9.2,9.3.6,4.8-3.3,3.3-7,6.4l-7.4,6.1-7.5,6.1c-3.8,3.1-7.8,1-7.8,5.9s4.1,2.7,7.8,5.8,3.4,3.5,7.2,6.6,3.9,2.8,7.7,5.9,6.1,1.7,7.6,6.3C808.8,860.5,803.5,862.1,797,863.6Z" fill="#efebe9" stroke="#8d6e63" stroke-linecap="round" stroke-linejoin="round" stroke-width="3"/><path d="M865.6,862.2c-3.7-1.9-2.6-3.3-4.9-6.7s-2.3-3.5-4.6-6.9-.2-7.4-4.4-7.4-2.4,3.7-4.7,7.1-2.2,3.5-4.5,7-1.2,4.6-4.9,6.5-4.3.3-8.8.3-7,4-8.7-.1,2.5-4,5.4-7.8,3.2-3.6,6-7.5,2.6-4,5.5-7.9,6-2.7,6.1-7.5-2.8-3.9-5.5-7.7-3.1-3.5-5.9-7.3l-5.4-7.5c-2.8-3.8-7.4-3.8-5.5-8s4.8.3,9.3.3,5.1-2.5,9.1-.6,2.1,3.8,4.4,7.2,2.6,3.1,4.9,6.4.2,6.6,4.3,6.6,2.3-3,4.5-6.3,2.5-3.2,4.7-6.6.6-5.3,4.1-7.2,4.3.1,8.4.1,6.9-3.7,8.5.2-2.5,4-5.2,7.8-2.8,3.6-5.5,7.4-3,3.5-5.6,7.3-4.7,3.1-4.6,7.7,2.3,4,5,7.9,3.2,3.6,6,7.4,2.8,3.8,5.6,7.7,6.9,3.5,4.9,7.8-4.3-.7-8.8,0S869.7,864.2,865.6,862.2Z" fill="#efebe9" stroke="#8d6e63" stroke-linecap="round" stroke-linejoin="round" stroke-width="3"/><path d="M937.2,862.2c-3.5-2.3-.4-4.3-.4-8.5s.1-4.1.1-8.3.6-4.1.6-8.3-.2-4.2-.2-8.3-.2-4.2-.2-8.4c0-1.5.4-2.8.3-4a14.2,14.2,0,0,0-.7-2.8,4.3,4.3,0,0,0-1-1.8c-.5-.4-1.2-.2-2-.2a4.4,4.4,0,0,0-3.8,2.2c-1.2,1.6-2.2,4.6-3.7,8.6a55.2,55.2,0,0,0-.5,9.9c0,5,.1,5,.1,9.9s.5,5,.5,10,3.8,7.1-.1,10.2-7.8,3.4-13.1,0c-3.4-2.3.4-4.5.4-8.7s-.6-4.1-.6-8.3.5-4.1.5-8.3-.4-4.2-.4-8.3v-8.4c0-1.5.4-2.8.3-4a11.7,11.7,0,0,0-.3-2.9c-.2-.8-1.1-1-1.5-1.4a2.6,2.6,0,0,0-1.8-.6c-1,0-2,.7-3.3,2.4s-2.5,4.5-4,8.6-.3,4.9-.3,9.8-.5,5-.5,9.9.7,5,.7,10,3.5,6.7-.4,9.7-7.6,4-12.8.4c-3.6-2.5-.2-4.6-.2-9s.8-4.3.8-8.7-.3-4.4-.3-8.7-.5-4.4-.5-8.8.7-4.3.7-8.7-.2-4.4-.2-8.7-3.3-5.8.1-8.5,6.6-3.9,10.9-.5-.9,4.8-.2,9.2a41.1,41.1,0,0,1,2.7-4.8,12.7,12.7,0,0,1,3-3.1,10.4,10.4,0,0,1,3.2-1.9,11.3,11.3,0,0,1,3.9-.7,10.5,10.5,0,0,1,7.7,3.1,11.3,11.3,0,0,1,3.2,7.3,29.1,29.1,0,0,1,2.7-4.7,18.7,18.7,0,0,1,2.8-3.3,13.2,13.2,0,0,1,3.4-2,17,17,0,0,1,4.1-.5c4.4,0,8,1.8,10.1,4.9s1.6,4.2,2.1,6.9a37.1,37.1,0,0,1,.7,7.1c0,4.4.5,4.4.5,8.8s-.4,4.4-.4,8.7v8.8c0,4.4-.4,4.4-.4,8.8s3,5.2.8,9C946.8,868,942.5,865.7,937.2,862.2Z" fill="#efebe9" stroke="#8d6e63" stroke-linecap="round" stroke-linejoin="round" stroke-width="3"/><path d="M981.5,788.6c-3-3.1-4.2.3-8.6.3s-6.3,3.2-8.9-.2-2.8-6.8.5-11.5,3.9,0,7.9,0,4-.2,8.1-.2,4,.3,8,.3,5.4-3.3,8.1-.2-.1,4.5-.1,9.1.4,4.6.4,9.2-.4,4.6-.4,9.2.4,4.6.4,9.2-.5,4.6-.5,9.2.1,4.6.1,9.2.5,4.6.5,9.2-3.3,5.6-.1,8.9,4.1,0,8.5,0,6.1-3.1,8.8.4,3.9,7.1.4,11.6-4.7-.3-9-.3-4.4.4-8.7.4h-8.7c-4.3,0-4.3-.4-8.6-.4s-4.4-.2-8.7-.2-6.3,3.9-9,.5-3.5-7.4.1-11.8,5,0,9.9,0,5.8,3.1,9.4-.2.2-4.1.2-8.5.4-4.5.4-8.9-.7-4.5-.7-8.9.6-4.4.6-8.9-.5-4.4-.5-8.8-1-4.7-.1-9S984.6,791.8,981.5,788.6Z" fill="#efebe9" stroke="#8d6e63" stroke-linecap="round" stroke-linejoin="round" stroke-width="3"/><path d="M1042.3,795c4.2-1,3.7,2.6,7,5.5l6.7,5.7c3.4,2.9,3,3.4,6.4,6.2s3.5,2.7,6.8,5.6,3.6,2.7,6.9,5.5,6.5,1.4,6.5,5.8-3.1,2.8-6.5,5.7-3.5,2.7-6.9,5.6-3,3.1-6.4,6-3.7,2.5-7.1,5.4-3.1,3.1-6.5,5.9-2.6,6.4-6.9,5.4c-6.4-1.6-8.4-2.8-9.2-9.4-.5-4.8,3.4-3.3,7.1-6.4s3.7-3.1,7.4-6.2l7.5-6c3.7-3.1,7.8-1.1,7.8-5.9s-4.2-2.8-7.9-5.9-3.4-3.4-7.1-6.5-4-2.8-7.7-5.9-6.1-1.7-7.6-6.3C1030.5,798.2,1035.8,796.6,1042.3,795Z" fill="#efebe9" stroke="#8d6e63" stroke-linecap="round" stroke-linejoin="round" stroke-width="3"/></svg>